<?xml version="1.0" standalone="no"?>
<!DOCTYPE svg PUBLIC "-//W3C//DTD SVG 20010904//EN"
 "http://www.w3.org/TR/2001/REC-SVG-20010904/DTD/svg10.dtd">
<svg version="1.0" xmlns="http://www.w3.org/2000/svg"
 width="512.000000pt" height="512.000000pt" viewBox="0 0 512.000000 512.000000"
 preserveAspectRatio="xMidYMid meet">
<metadata>
Created by potrace 1.11, written by Peter Selinger 2001-2013
</metadata>
<g transform="translate(0.000000,512.000000) scale(0.100000,-0.100000)"
fill="#000000" stroke="none">
<path d="M1341 1501 c-26 -26 -26 -43 -3 -64 47 -43 117 7 84 60 -15 24 -59
26 -81 4z"/>
<path d="M2350 1295 l0 -225 50 0 50 0 0 225 0 225 -50 0 -50 0 0 -225z"/>
<path d="M1023 1484 c-46 -23 -64 -47 -70 -93 -5 -37 -2 -44 33 -79 23 -23 63
-48 99 -61 73 -27 85 -37 85 -67 0 -31 -33 -48 -77 -39 -27 5 -38 13 -46 36
-10 26 -15 29 -59 29 -44 0 -48 -2 -48 -24 0 -30 42 -81 84 -103 45 -24 144
-22 187 3 48 27 72 79 58 126 -12 47 -54 81 -129 109 -74 27 -96 49 -80 79 16
30 90 25 105 -7 8 -20 17 -23 62 -23 l52 0 -9 31 c-19 66 -74 99 -162 99 -29
0 -67 -8 -85 -16z"/>
<path d="M2820 1460 l0 -40 60 0 60 0 0 -175 0 -175 55 0 55 0 0 175 0 175 66
0 65 0 -3 38 -3 37 -177 3 -178 2 0 -40z"/>
<path d="M3498 1494 c-5 -4 -8 -101 -8 -216 l0 -208 93 0 c136 1 206 40 237
136 20 60 7 159 -26 207 -43 60 -91 81 -199 85 -49 2 -93 1 -97 -4z m200 -109
c18 -22 22 -38 22 -96 0 -104 -23 -139 -91 -139 l-29 0 0 136 0 137 38 -6 c22
-4 46 -17 60 -32z"/>
<path d="M1330 1230 l0 -160 50 0 50 0 0 160 0 160 -50 0 -50 0 0 -160z"/>
<path d="M1490 1230 l0 -160 50 0 50 0 0 115 c0 113 1 116 25 127 46 21 55 0
55 -128 l0 -114 50 0 50 0 0 115 c0 113 1 116 25 127 46 21 55 0 55 -128 l0
-114 51 0 51 0 -4 136 c-3 135 -3 136 -31 160 -35 30 -97 32 -136 5 -27 -20
-28 -20 -44 0 -21 23 -94 26 -123 4 -25 -19 -34 -19 -34 0 0 11 -12 15 -45 15
l-45 0 0 -160z"/>
<path d="M2010 1170 l0 -220 50 0 50 0 0 69 0 70 28 -15 c75 -39 162 40 162
148 0 105 -46 168 -122 168 -25 0 -49 -7 -60 -17 -17 -15 -18 -15 -18 0 0 13
-10 17 -45 17 l-45 0 0 -220z m170 130 c15 -15 20 -33 20 -69 0 -63 -25 -97
-63 -87 -26 6 -27 8 -27 85 0 67 3 80 18 84 30 8 32 7 52 -13z"/>
<path d="M2585 1381 c-28 -12 -62 -51 -74 -84 -15 -40 -14 -113 3 -145 46 -89
170 -116 247 -53 22 18 22 19 6 45 -20 30 -25 31 -51 11 -11 -8 -32 -15 -48
-15 -27 0 -68 30 -68 50 0 6 40 10 100 10 97 0 100 1 100 23 -1 49 -20 102
-49 130 -25 26 -39 31 -88 34 -32 1 -67 -1 -78 -6z m99 -77 c31 -30 20 -44
-34 -44 -54 0 -61 9 -30 40 24 24 43 25 64 4z"/>
<path d="M3225 1380 c-49 -20 -85 -83 -85 -151 0 -185 244 -230 300 -55 23 71
-6 162 -63 196 -34 21 -114 26 -152 10z m91 -68 c51 -34 42 -154 -12 -168 -39
-10 -64 24 -64 87 0 65 38 106 76 81z"/>
<path d="M3932 1370 c-19 -12 -40 -37 -49 -57 -20 -50 -18 -137 4 -176 56 -96
212 -94 264 3 41 76 11 202 -55 234 -48 22 -124 20 -164 -4z m118 -70 c15 -15
20 -33 20 -73 0 -64 -23 -93 -64 -83 -45 11 -56 114 -18 159 20 22 37 22 62
-3z"/>
</g>
</svg>
